<?xml version="1.0" standalone="no"?>
<!DOCTYPE svg PUBLIC "-//W3C//DTD SVG 20010904//EN"
 "http://www.w3.org/TR/2001/REC-SVG-20010904/DTD/svg10.dtd">
<svg version="1.0" xmlns="http://www.w3.org/2000/svg"
 width="600.000000pt" height="600.000000pt" viewBox="0 0 600.000000 600.000000"
 preserveAspectRatio="xMidYMid meet">
<g transform="translate(0.000000,600.000000) scale(0.050000,-0.050000)"
fill="#000000" stroke="none">
<path d="M5475 11980 c-4676 -422 -7089 -5839 -4270 -9585 l177 -235 4618 0
4618 0 177 235 c2170 2884 1313 7020 -1828 8819 -1020 585 -2326 871 -3492
766z m-2402 -3644 c155 -86 132 -24 582 -1518 151 -502 284 -912 295 -912 11
0 396 469 856 1042 1117 1393 1090 1367 1436 1412 198 25 1145 24 1258 -2 203
-46 223 -230 38 -353 -282 -188 -220 -34 -717 -1788 -448 -1578 -439 -1532
-328 -1737 109 -202 60 -314 -158 -359 -221 -46 -1821 -20 -1889 31 -124 93
-82 235 109 365 142 97 194 152 234 247 38 91 513 1781 503 1790 -3 4 -396
-475 -871 -1064 -1107 -1371 -1116 -1380 -1381 -1380 -272 0 -278 12 -681
1340 -167 550 -310 1011 -317 1025 -22 41 -502 -1668 -502 -1786 0 -81 14
-123 69 -210 77 -120 86 -173 42 -257 -52 -100 -116 -112 -616 -112 l-454 0
-54 54 c-89 89 -58 231 68 310 271 168 238 89 705 1739 l399 1413 -58 202
c-115 404 -99 481 109 534 131 33 1255 11 1323 -26z m7227 22 c235 -54 218
-231 -42 -408 -194 -132 -193 -129 -655 -1760 l-415 -1460 221 -6 c425 -12
454 4 848 474 415 494 492 551 753 551 385 0 422 -125 232 -799 -178 -631
-269 -770 -543 -828 -193 -42 -3354 -29 -3439 13 -158 79 -125 215 90 375 236
174 164 -24 759 2081 346 1225 343 1209 239 1410 -106 206 -59 315 154 357
128 26 1689 25 1798 0z"/>
<path d="M1680 1842 c0 -26 351 -348 563 -518 2197 -1763 5317 -1763 7514 0
212 170 563 492 563 518 0 11 -1689 18 -4320 18 -2631 0 -4320 -7 -4320 -18z"/>
</g>
</svg>
